<svg aria-roledescription="er" role="graphics-document document" viewBox="0 0 1503.9593505859375 986" style="max-width: 1503.96px; background-color: white;" xmlns:xlink="http://www.w3.org/1999/xlink" xmlns="http://www.w3.org/2000/svg" width="100%" id="my-svg"><style>#my-svg{font-family:"trebuchet ms",verdana,arial,sans-serif;font-size:16px;fill:#ccc;}#my-svg .error-icon{fill:#a44141;}#my-svg .error-text{fill:#ddd;stroke:#ddd;}#my-svg .edge-thickness-normal{stroke-width:1px;}#my-svg .edge-thickness-thick{stroke-width:3.5px;}#my-svg .edge-pattern-solid{stroke-dasharray:0;}#my-svg .edge-thickness-invisible{stroke-width:0;fill:none;}#my-svg .edge-pattern-dashed{stroke-dasharray:3;}#my-svg .edge-pattern-dotted{stroke-dasharray:2;}#my-svg .marker{fill:lightgrey;stroke:lightgrey;}#my-svg .marker.cross{stroke:lightgrey;}#my-svg svg{font-family:"trebuchet ms",verdana,arial,sans-serif;font-size:16px;}#my-svg p{margin:0;}#my-svg .entityBox{fill:#1f2020;stroke:#ccc;}#my-svg .attributeBoxOdd{fill:hsl(0, 0%, 32%);stroke:#ccc;}#my-svg .attributeBoxEven{fill:hsl(0, 0%, 22%);stroke:#ccc;}#my-svg .relationshipLabelBox{fill:hsl(20, 1.5873015873%, 12.3529411765%);opacity:0.7;background-color:hsl(20, 1.5873015873%, 12.3529411765%);}#my-svg .relationshipLabelBox rect{opacity:0.5;}#my-svg .relationshipLine{stroke:lightgrey;}#my-svg .entityTitleText{text-anchor:middle;font-size:18px;fill:#ccc;}#my-svg #MD_PARENT_START{fill:#f5f5f5!important;stroke:lightgrey!important;stroke-width:1;}#my-svg #MD_PARENT_END{fill:#f5f5f5!important;stroke:lightgrey!important;stroke-width:1;}#my-svg :root{--mermaid-font-family:"trebuchet ms",verdana,arial,sans-serif;}</style><g/><defs><marker orient="auto" markerHeight="240" markerWidth="190" refY="7" refX="0" id="MD_PARENT_START"><path d="M 18,7 L9,13 L1,7 L9,1 Z"/></marker></defs><defs><marker orient="auto" markerHeight="28" markerWidth="20" refY="7" refX="19" id="MD_PARENT_END"><path d="M 18,7 L9,13 L1,7 L9,1 Z"/></marker></defs><defs><marker orient="auto" markerHeight="18" markerWidth="18" refY="9" refX="0" id="ONLY_ONE_START"><path d="M9,0 L9,18 M15,0 L15,18" fill="none" stroke="gray"/></marker></defs><defs><marker orient="auto" markerHeight="18" markerWidth="18" refY="9" refX="18" id="ONLY_ONE_END"><path d="M3,0 L3,18 M9,0 L9,18" fill="none" stroke="gray"/></marker></defs><defs><marker orient="auto" markerHeight="18" markerWidth="30" refY="9" refX="0" id="ZERO_OR_ONE_START"><circle r="6" cy="9" cx="21" fill="white" stroke="gray"/><path d="M9,0 L9,18" fill="none" stroke="gray"/></marker></defs><defs><marker orient="auto" markerHeight="18" markerWidth="30" refY="9" refX="30" id="ZERO_OR_ONE_END"><circle r="6" cy="9" cx="9" fill="white" stroke="gray"/><path d="M21,0 L21,18" fill="none" stroke="gray"/></marker></defs><defs><marker orient="auto" markerHeight="36" markerWidth="45" refY="18" refX="18" id="ONE_OR_MORE_START"><path d="M0,18 Q 18,0 36,18 Q 18,36 0,18 M42,9 L42,27" fill="none" stroke="gray"/></marker></defs><defs><marker orient="auto" markerHeight="36" markerWidth="45" refY="18" refX="27" id="ONE_OR_MORE_END"><path d="M3,9 L3,27 M9,18 Q27,0 45,18 Q27,36 9,18" fill="none" stroke="gray"/></marker></defs><defs><marker orient="auto" markerHeight="36" markerWidth="57" refY="18" refX="18" id="ZERO_OR_MORE_START"><circle r="6" cy="18" cx="48" fill="white" stroke="gray"/><path d="M0,18 Q18,0 36,18 Q18,36 0,18" fill="none" stroke="gray"/></marker></defs><defs><marker orient="auto" markerHeight="36" markerWidth="57" refY="18" refX="39" id="ZERO_OR_MORE_END"><circle r="6" cy="18" cx="9" fill="white" stroke="gray"/><path d="M21,18 Q39,0 57,18 Q39,36 21,18" fill="none" stroke="gray"/></marker></defs><path style="stroke: gray; fill: none;" marker-start="url(#ZERO_OR_ONE_START)" marker-end="url(#ONLY_ONE_END)" d="M916.129,133.273L863.209,152.394C810.289,171.515,704.449,209.758,651.529,237.212C598.609,264.667,598.609,281.333,598.609,289.667L598.609,298" class="er relationshipLine"/><path style="stroke: gray; fill: none;" marker-start="url(#ZERO_OR_MORE_START)" marker-end="url(#ZERO_OR_MORE_END)" d="M1048.029,198L1054.089,206.333C1060.149,214.667,1072.269,231.333,1044.675,251.97C1017.082,272.606,949.774,297.213,916.12,309.516L882.466,321.819" class="er relationshipLine"/><path style="stroke: gray; fill: none;" marker-start="url(#ZERO_OR_MORE_START)" marker-end="url(#ZERO_OR_MORE_END)" d="M1050.484,129.62L1114.76,149.35C1179.037,169.08,1307.59,208.54,1371.866,244.103C1436.143,279.667,1436.143,311.333,1436.143,343C1436.143,374.667,1436.143,406.333,1436.143,449C1436.143,491.667,1436.143,545.333,1436.143,599C1436.143,652.667,1436.143,706.333,1421.271,750.667C1406.399,795,1376.654,830,1361.782,847.5L1346.91,865" class="er relationshipLine"/><path style="stroke: gray; fill: none;" marker-start="url(#ZERO_OR_ONE_START)" marker-end="url(#ZERO_OR_ONE_END)" d="M732.419,810L728.223,801.667C724.027,793.333,715.635,776.667,717.51,760C719.385,743.333,731.526,726.667,737.597,718.333L743.667,710" class="er relationshipLine"/><path style="stroke: gray; fill: none;" marker-start="url(#ZERO_OR_ONE_START)" marker-end="url(#ONLY_ONE_END)" d="M1310.973,865L1298.501,847.5C1286.029,830,1261.086,795,1248.614,750.667C1236.143,706.333,1236.143,652.667,1236.143,599C1236.143,545.333,1236.143,491.667,1236.143,449C1236.143,406.333,1236.143,374.667,1236.143,343C1236.143,311.333,1236.143,279.667,1205.2,246.822C1174.256,213.977,1112.37,179.954,1081.427,162.943L1050.484,145.932" class="er relationshipLine"/><path style="stroke: gray; fill: none;" marker-start="url(#ZERO_OR_ONE_START)" marker-end="url(#ONLY_ONE_END)" d="M1293.004,865L1266.86,847.5C1240.717,830,1188.43,795,1127.602,759.58C1066.773,724.159,997.404,688.319,962.719,670.398L928.034,652.478" class="er relationshipLine"/><path style="stroke: gray; fill: none;" marker-start="url(#ZERO_OR_ONE_START)" marker-end="url(#ZERO_OR_ONE_END)" d="M805.723,320L795.912,308C786.101,296,766.478,272,784.879,243.415C803.28,214.83,859.705,181.661,887.917,165.076L916.129,148.491" class="er relationshipLine"/><path style="stroke: gray; fill: none;" marker-start="url(#ZERO_OR_ONE_START)" marker-end="url(#ZERO_OR_ONE_END)" d="M882.466,364.181L916.12,376.484C949.774,388.787,1017.082,413.394,1024.676,441.842C1032.271,470.29,980.153,502.581,954.093,518.726L928.034,534.871" class="er relationshipLine"/><path style="stroke: gray; fill: none;" marker-start="url(#ZERO_OR_ONE_START)" marker-end="url(#ONLY_ONE_END)" d="M721.021,621.197L613.146,644.331C505.271,667.465,289.521,713.732,181.646,752.533C73.771,791.333,73.771,822.667,73.771,838.333L73.771,854" class="er relationshipLine"/><path style="stroke: gray; fill: none;" marker-start="url(#ZERO_OR_MORE_START)" marker-end="url(#ZERO_OR_MORE_END)" d="M824.528,710L824.528,718.333C824.528,726.667,824.528,743.333,821.088,760C817.648,776.667,810.768,793.333,807.328,801.667L803.888,810" class="er relationshipLine"/><path style="stroke: gray; fill: none;" marker-start="url(#ZERO_OR_ONE_START)" marker-end="url(#ONLY_ONE_END)" d="M721.021,630.611L650.411,652.176C579.8,673.741,438.58,716.87,367.97,750.435C297.359,784,297.359,808,297.359,820L297.359,832" class="er relationshipLine"/><path style="stroke: gray; fill: none;" marker-start="url(#ZERO_OR_ONE_START)" marker-end="url(#ZERO_OR_ONE_END)" d="M721.021,658.151L691.317,675.125C661.613,692.1,602.204,726.05,572.5,758.692C542.796,791.333,542.796,822.667,542.796,838.333L542.796,854" class="er relationshipLine"/><path style="stroke: gray; fill: none;" marker-start="url(#ZERO_OR_MORE_START)" marker-end="url(#ZERO_OR_MORE_END)" d="M788.847,488L786.168,479.667C783.489,471.333,778.132,454.667,781.99,434.333C785.849,414,798.923,390,805.461,378L811.998,366" class="er relationshipLine"/><path style="stroke: gray; fill: none;" marker-start="url(#ZERO_OR_MORE_START)" marker-end="url(#ZERO_OR_MORE_END)" d="M928.034,631.572L996.052,652.977C1064.07,674.382,1200.107,717.191,1266.924,756.095C1333.742,795,1331.342,830,1330.142,847.5L1328.941,865" class="er relationshipLine"/><path style="stroke: gray; fill: none;" marker-start="url(#ZERO_OR_MORE_START)" marker-end="url(#ZERO_OR_MORE_END)" d="M928.034,677.749L946.052,691.458C964.07,705.166,1000.107,732.583,1010.93,761.958C1021.754,791.333,1007.366,822.667,1000.171,838.333L992.977,854" class="er relationshipLine"/><path style="stroke: gray; fill: none;" marker-start="url(#ZERO_OR_ONE_START)" marker-end="url(#ONLY_ONE_END)" d="M963.329,854L956.862,838.333C950.395,822.667,937.462,791.333,925.819,767.333C914.176,743.333,903.824,726.667,898.648,718.333L893.472,710" class="er relationshipLine"/><g transform="translate(530.6290893554688,298 )" id="entity-Role-8dbdbbc4-0419-5464-aae6-f142fb2ece67"><rect height="90" width="135.9600830078125" y="0" x="0" class="er entityBox"/><text style="dominant-baseline: middle; text-anchor: middle; font-size: 12px;" transform="translate(67.98004150390625,12)" y="0" x="0" id="text-entity-Role-8dbdbbc4-0419-5464-aae6-f142fb2ece67" class="er entityLabel">Role</text><rect height="22" width="67.98004150390625" y="24" x="0" class="er attributeBoxOdd"/><text style="dominant-baseline: middle; font-size: 10.2px;" transform="translate(5,35)" y="0" x="0" id="text-entity-Role-8dbdbbc4-0419-5464-aae6-f142fb2ece67-attr-1-type" class="er entityLabel">ADMIN</text><rect height="22" width="67.98004150390625" y="24" x="67.98004150390625" class="er attributeBoxOdd"/><text style="dominant-baseline: middle; font-size: 10.2px;" transform="translate(72.98004150390625,35)" y="0" x="0" id="text-entity-Role-8dbdbbc4-0419-5464-aae6-f142fb2ece67-attr-1-name" class="er entityLabel">ADMIN</text><rect height="22" width="67.98004150390625" y="46" x="0" class="er attributeBoxEven"/><text style="dominant-baseline: middle; font-size: 10.2px;" transform="translate(5,57)" y="0" x="0" id="text-entity-Role-8dbdbbc4-0419-5464-aae6-f142fb2ece67-attr-2-type" class="er entityLabel">CORRETOR</text><rect height="22" width="67.98004150390625" y="46" x="67.98004150390625" class="er attributeBoxEven"/><text style="dominant-baseline: middle; font-size: 10.2px;" transform="translate(72.98004150390625,57)" y="0" x="0" id="text-entity-Role-8dbdbbc4-0419-5464-aae6-f142fb2ece67-attr-2-name" class="er entityLabel">CORRETOR</text><rect height="22" width="67.98004150390625" y="68" x="0" class="er attributeBoxOdd"/><text style="dominant-baseline: middle; font-size: 10.2px;" transform="translate(5,79)" y="0" x="0" id="text-entity-Role-8dbdbbc4-0419-5464-aae6-f142fb2ece67-attr-3-type" class="er entityLabel">COMPRADOR</text><rect height="22" width="67.98004150390625" y="68" x="67.98004150390625" class="er attributeBoxOdd"/><text style="dominant-baseline: middle; font-size: 10.2px;" transform="translate(72.98004150390625,79)" y="0" x="0" id="text-entity-Role-8dbdbbc4-0419-5464-aae6-f142fb2ece67-attr-3-name" class="er entityLabel">COMPRADOR</text></g><g transform="translate(20,854 )" id="entity-TipoContrato-0cdfb181-ef7b-5a18-ae95-f5a044dae1d6"><rect height="68" width="107.54153442382812" y="0" x="0" class="er entityBox"/><text style="dominant-baseline: middle; text-anchor: middle; font-size: 12px;" transform="translate(53.77076721191406,12)" y="0" x="0" id="text-entity-TipoContrato-0cdfb181-ef7b-5a18-ae95-f5a044dae1d6" class="er entityLabel">TipoContrato</text><rect height="22" width="53.77076721191406" y="24" x="0" class="er attributeBoxOdd"/><text style="dominant-baseline: middle; font-size: 10.2px;" transform="translate(5,35)" y="0" x="0" id="text-entity-TipoContrato-0cdfb181-ef7b-5a18-ae95-f5a044dae1d6-attr-1-type" class="er entityLabel">VENDA</text><rect height="22" width="53.77076721191406" y="24" x="53.77076721191406" class="er attributeBoxOdd"/><text style="dominant-baseline: middle; font-size: 10.2px;" transform="translate(58.77076721191406,35)" y="0" x="0" id="text-entity-TipoContrato-0cdfb181-ef7b-5a18-ae95-f5a044dae1d6-attr-1-name" class="er entityLabel">VENDA</text><rect height="22" width="53.77076721191406" y="46" x="0" class="er attributeBoxEven"/><text style="dominant-baseline: middle; font-size: 10.2px;" transform="translate(5,57)" y="0" x="0" id="text-entity-TipoContrato-0cdfb181-ef7b-5a18-ae95-f5a044dae1d6-attr-2-type" class="er entityLabel">ALUGUEL</text><rect height="22" width="53.77076721191406" y="46" x="53.77076721191406" class="er attributeBoxEven"/><text style="dominant-baseline: middle; font-size: 10.2px;" transform="translate(58.77076721191406,57)" y="0" x="0" id="text-entity-TipoContrato-0cdfb181-ef7b-5a18-ae95-f5a044dae1d6-attr-2-name" class="er entityLabel">ALUGUEL</text></g><g transform="translate(227.54153442382812,832 )" id="entity-StatusImovel-bc367031-505a-5a94-9cb7-c649046ef96f"><rect height="112" width="139.63568115234375" y="0" x="0" class="er entityBox"/><text style="dominant-baseline: middle; text-anchor: middle; font-size: 12px;" transform="translate(69.81784057617188,12)" y="0" x="0" id="text-entity-StatusImovel-bc367031-505a-5a94-9cb7-c649046ef96f" class="er entityLabel">StatusImovel</text><rect height="22" width="69.81784057617188" y="24" x="0" class="er attributeBoxOdd"/><text style="dominant-baseline: middle; font-size: 10.2px;" transform="translate(5,35)" y="0" x="0" id="text-entity-StatusImovel-bc367031-505a-5a94-9cb7-c649046ef96f-attr-1-type" class="er entityLabel">NEGOCIACAO</text><rect height="22" width="69.81784057617188" y="24" x="69.81784057617188" class="er attributeBoxOdd"/><text style="dominant-baseline: middle; font-size: 10.2px;" transform="translate(74.81784057617188,35)" y="0" x="0" id="text-entity-StatusImovel-bc367031-505a-5a94-9cb7-c649046ef96f-attr-1-name" class="er entityLabel">NEGOCIACAO</text><rect height="22" width="69.81784057617188" y="46" x="0" class="er attributeBoxEven"/><text style="dominant-baseline: middle; font-size: 10.2px;" transform="translate(5,57)" y="0" x="0" id="text-entity-StatusImovel-bc367031-505a-5a94-9cb7-c649046ef96f-attr-2-type" class="er entityLabel">VENDIDO</text><rect height="22" width="69.81784057617188" y="46" x="69.81784057617188" class="er attributeBoxEven"/><text style="dominant-baseline: middle; font-size: 10.2px;" transform="translate(74.81784057617188,57)" y="0" x="0" id="text-entity-StatusImovel-bc367031-505a-5a94-9cb7-c649046ef96f-attr-2-name" class="er entityLabel">VENDIDO</text><rect height="22" width="69.81784057617188" y="68" x="0" class="er attributeBoxOdd"/><text style="dominant-baseline: middle; font-size: 10.2px;" transform="translate(5,79)" y="0" x="0" id="text-entity-StatusImovel-bc367031-505a-5a94-9cb7-c649046ef96f-attr-3-type" class="er entityLabel">ALUGADO</text><rect height="22" width="69.81784057617188" y="68" x="69.81784057617188" class="er attributeBoxOdd"/><text style="dominant-baseline: middle; font-size: 10.2px;" transform="translate(74.81784057617188,79)" y="0" x="0" id="text-entity-StatusImovel-bc367031-505a-5a94-9cb7-c649046ef96f-attr-3-name" class="er entityLabel">ALUGADO</text><rect height="22" width="69.81784057617188" y="90" x="0" class="er attributeBoxEven"/><text style="dominant-baseline: middle; font-size: 10.2px;" transform="translate(5,101)" y="0" x="0" id="text-entity-StatusImovel-bc367031-505a-5a94-9cb7-c649046ef96f-attr-4-type" class="er entityLabel">PENDENTE</text><rect height="22" width="69.81784057617188" y="90" x="69.81784057617188" class="er attributeBoxEven"/><text style="dominant-baseline: middle; font-size: 10.2px;" transform="translate(74.81784057617188,101)" y="0" x="0" id="text-entity-StatusImovel-bc367031-505a-5a94-9cb7-c649046ef96f-attr-4-name" class="er entityLabel">PENDENTE</text></g><g transform="translate(467.1772155761719,854 )" id="entity-TipoImovel-e435d25a-b24a-5c3a-b40e-ffaa8c378e80"><rect height="68" width="151.2379150390625" y="0" x="0" class="er entityBox"/><text style="dominant-baseline: middle; text-anchor: middle; font-size: 12px;" transform="translate(75.61895751953125,12)" y="0" x="0" id="text-entity-TipoImovel-e435d25a-b24a-5c3a-b40e-ffaa8c378e80" class="er entityLabel">TipoImovel</text><rect height="22" width="75.61895751953125" y="24" x="0" class="er attributeBoxOdd"/><text style="dominant-baseline: middle; font-size: 10.2px;" transform="translate(5,35)" y="0" x="0" id="text-entity-TipoImovel-e435d25a-b24a-5c3a-b40e-ffaa8c378e80-attr-1-type" class="er entityLabel">CASA</text><rect height="22" width="75.61895751953125" y="24" x="75.61895751953125" class="er attributeBoxOdd"/><text style="dominant-baseline: middle; font-size: 10.2px;" transform="translate(80.61895751953125,35)" y="0" x="0" id="text-entity-TipoImovel-e435d25a-b24a-5c3a-b40e-ffaa8c378e80-attr-1-name" class="er entityLabel">CASA</text><rect height="22" width="75.61895751953125" y="46" x="0" class="er attributeBoxEven"/><text style="dominant-baseline: middle; font-size: 10.2px;" transform="translate(5,57)" y="0" x="0" id="text-entity-TipoImovel-e435d25a-b24a-5c3a-b40e-ffaa8c378e80-attr-2-type" class="er entityLabel">APARTAMENTO</text><rect height="22" width="75.61895751953125" y="46" x="75.61895751953125" class="er attributeBoxEven"/><text style="dominant-baseline: middle; font-size: 10.2px;" transform="translate(80.61895751953125,57)" y="0" x="0" id="text-entity-TipoImovel-e435d25a-b24a-5c3a-b40e-ffaa8c378e80-attr-2-name" class="er entityLabel">APARTAMENTO</text></g><g transform="translate(916.1292724609375,20 )" id="entity-usuario-3f3d1c11-fe51-5b9b-93c9-0ef7012abb56"><rect height="178" width="134.3543701171875" y="0" x="0" class="er entityBox"/><text style="dominant-baseline: middle; text-anchor: middle; font-size: 12px;" transform="translate(67.17718505859375,12)" y="0" x="0" id="text-entity-usuario-3f3d1c11-fe51-5b9b-93c9-0ef7012abb56" class="er entityLabel">usuario</text><rect height="22" width="54.095550537109375" y="24" x="0" class="er attributeBoxOdd"/><text style="dominant-baseline: middle; font-size: 10.2px;" transform="translate(5,35)" y="0" x="0" id="text-entity-usuario-3f3d1c11-fe51-5b9b-93c9-0ef7012abb56-attr-1-type" class="er entityLabel">String</text><rect height="22" width="56.243194580078125" y="24" x="54.095550537109375" class="er attributeBoxOdd"/><text style="dominant-baseline: middle; font-size: 10.2px;" transform="translate(59.095550537109375,35)" y="0" x="0" id="text-entity-usuario-3f3d1c11-fe51-5b9b-93c9-0ef7012abb56-attr-1-name" class="er entityLabel">id</text><rect height="22" width="24.015625" y="24" x="110.3387451171875" class="er attributeBoxOdd"/><text style="dominant-baseline: middle; font-size: 10.2px;" transform="translate(115.3387451171875,35)" y="0" x="0" id="text-entity-usuario-3f3d1c11-fe51-5b9b-93c9-0ef7012abb56-attr-1-comment" class="er entityLabel">🗝️</text><rect height="22" width="54.095550537109375" y="46" x="0" class="er attributeBoxEven"/><text style="dominant-baseline: middle; font-size: 10.2px;" transform="translate(5,57)" y="0" x="0" id="text-entity-usuario-3f3d1c11-fe51-5b9b-93c9-0ef7012abb56-attr-2-type" class="er entityLabel">String</text><rect height="22" width="56.243194580078125" y="46" x="54.095550537109375" class="er attributeBoxEven"/><text style="dominant-baseline: middle; font-size: 10.2px;" transform="translate(59.095550537109375,57)" y="0" x="0" id="text-entity-usuario-3f3d1c11-fe51-5b9b-93c9-0ef7012abb56-attr-2-name" class="er entityLabel">nome</text><rect height="22" width="24.015625" y="46" x="110.3387451171875" class="er attributeBoxEven"/><text style="dominant-baseline: middle; font-size: 10.2px;" transform="translate(115.3387451171875,57)" y="0" x="0" id="text-entity-usuario-3f3d1c11-fe51-5b9b-93c9-0ef7012abb56-attr-2-comment" class="er entityLabel"/><rect height="22" width="54.095550537109375" y="68" x="0" class="er attributeBoxOdd"/><text style="dominant-baseline: middle; font-size: 10.2px;" transform="translate(5,79)" y="0" x="0" id="text-entity-usuario-3f3d1c11-fe51-5b9b-93c9-0ef7012abb56-attr-3-type" class="er entityLabel">String</text><rect height="22" width="56.243194580078125" y="68" x="54.095550537109375" class="er attributeBoxOdd"/><text style="dominant-baseline: middle; font-size: 10.2px;" transform="translate(59.095550537109375,79)" y="0" x="0" id="text-entity-usuario-3f3d1c11-fe51-5b9b-93c9-0ef7012abb56-attr-3-name" class="er entityLabel">email</text><rect height="22" width="24.015625" y="68" x="110.3387451171875" class="er attributeBoxOdd"/><text style="dominant-baseline: middle; font-size: 10.2px;" transform="translate(115.3387451171875,79)" y="0" x="0" id="text-entity-usuario-3f3d1c11-fe51-5b9b-93c9-0ef7012abb56-attr-3-comment" class="er entityLabel"/><rect height="22" width="54.095550537109375" y="90" x="0" class="er attributeBoxEven"/><text style="dominant-baseline: middle; font-size: 10.2px;" transform="translate(5,101)" y="0" x="0" id="text-entity-usuario-3f3d1c11-fe51-5b9b-93c9-0ef7012abb56-attr-4-type" class="er entityLabel">String</text><rect height="22" width="56.243194580078125" y="90" x="54.095550537109375" class="er attributeBoxEven"/><text style="dominant-baseline: middle; font-size: 10.2px;" transform="translate(59.095550537109375,101)" y="0" x="0" id="text-entity-usuario-3f3d1c11-fe51-5b9b-93c9-0ef7012abb56-attr-4-name" class="er entityLabel">senha</text><rect height="22" width="24.015625" y="90" x="110.3387451171875" class="er attributeBoxEven"/><text style="dominant-baseline: middle; font-size: 10.2px;" transform="translate(115.3387451171875,101)" y="0" x="0" id="text-entity-usuario-3f3d1c11-fe51-5b9b-93c9-0ef7012abb56-attr-4-comment" class="er entityLabel"/><rect height="22" width="54.095550537109375" y="112" x="0" class="er attributeBoxOdd"/><text style="dominant-baseline: middle; font-size: 10.2px;" transform="translate(5,123)" y="0" x="0" id="text-entity-usuario-3f3d1c11-fe51-5b9b-93c9-0ef7012abb56-attr-5-type" class="er entityLabel">String</text><rect height="22" width="56.243194580078125" y="112" x="54.095550537109375" class="er attributeBoxOdd"/><text style="dominant-baseline: middle; font-size: 10.2px;" transform="translate(59.095550537109375,123)" y="0" x="0" id="text-entity-usuario-3f3d1c11-fe51-5b9b-93c9-0ef7012abb56-attr-5-name" class="er entityLabel">telefone</text><rect height="22" width="24.015625" y="112" x="110.3387451171875" class="er attributeBoxOdd"/><text style="dominant-baseline: middle; font-size: 10.2px;" transform="translate(115.3387451171875,123)" y="0" x="0" id="text-entity-usuario-3f3d1c11-fe51-5b9b-93c9-0ef7012abb56-attr-5-comment" class="er entityLabel">❓</text><rect height="22" width="54.095550537109375" y="134" x="0" class="er attributeBoxEven"/><text style="dominant-baseline: middle; font-size: 10.2px;" transform="translate(5,145)" y="0" x="0" id="text-entity-usuario-3f3d1c11-fe51-5b9b-93c9-0ef7012abb56-attr-6-type" class="er entityLabel">Role</text><rect height="22" width="56.243194580078125" y="134" x="54.095550537109375" class="er attributeBoxEven"/><text style="dominant-baseline: middle; font-size: 10.2px;" transform="translate(59.095550537109375,145)" y="0" x="0" id="text-entity-usuario-3f3d1c11-fe51-5b9b-93c9-0ef7012abb56-attr-6-name" class="er entityLabel">perfil</text><rect height="22" width="24.015625" y="134" x="110.3387451171875" class="er attributeBoxEven"/><text style="dominant-baseline: middle; font-size: 10.2px;" transform="translate(115.3387451171875,145)" y="0" x="0" id="text-entity-usuario-3f3d1c11-fe51-5b9b-93c9-0ef7012abb56-attr-6-comment" class="er entityLabel"/><rect height="22" width="54.095550537109375" y="156" x="0" class="er attributeBoxOdd"/><text style="dominant-baseline: middle; font-size: 10.2px;" transform="translate(5,167)" y="0" x="0" id="text-entity-usuario-3f3d1c11-fe51-5b9b-93c9-0ef7012abb56-attr-7-type" class="er entityLabel">DateTime</text><rect height="22" width="56.243194580078125" y="156" x="54.095550537109375" class="er attributeBoxOdd"/><text style="dominant-baseline: middle; font-size: 10.2px;" transform="translate(59.095550537109375,167)" y="0" x="0" id="text-entity-usuario-3f3d1c11-fe51-5b9b-93c9-0ef7012abb56-attr-7-name" class="er entityLabel">createdAt</text><rect height="22" width="24.015625" y="156" x="110.3387451171875" class="er attributeBoxOdd"/><text style="dominant-baseline: middle; font-size: 10.2px;" transform="translate(115.3387451171875,167)" y="0" x="0" id="text-entity-usuario-3f3d1c11-fe51-5b9b-93c9-0ef7012abb56-attr-7-comment" class="er entityLabel"/></g><g transform="translate(718.4151306152344,810 )" id="entity-endereco-677e4b4d-3ac0-56c5-8399-8e6f43e8ea90"><rect height="156" width="106.5523681640625" y="0" x="0" class="er entityBox"/><text style="dominant-baseline: middle; text-anchor: middle; font-size: 12px;" transform="translate(53.27618408203125,12)" y="0" x="0" id="text-entity-endereco-677e4b4d-3ac0-56c5-8399-8e6f43e8ea90" class="er entityLabel">endereco</text><rect height="22" width="37.39605712890625" y="24" x="0" class="er attributeBoxOdd"/><text style="dominant-baseline: middle; font-size: 10.2px;" transform="translate(5,35)" y="0" x="0" id="text-entity-endereco-677e4b4d-3ac0-56c5-8399-8e6f43e8ea90-attr-1-type" class="er entityLabel">String</text><rect height="22" width="45.14068603515625" y="24" x="37.39605712890625" class="er attributeBoxOdd"/><text style="dominant-baseline: middle; font-size: 10.2px;" transform="translate(42.39605712890625,35)" y="0" x="0" id="text-entity-endereco-677e4b4d-3ac0-56c5-8399-8e6f43e8ea90-attr-1-name" class="er entityLabel">id</text><rect height="22" width="24.015625" y="24" x="82.5367431640625" class="er attributeBoxOdd"/><text style="dominant-baseline: middle; font-size: 10.2px;" transform="translate(87.5367431640625,35)" y="0" x="0" id="text-entity-endereco-677e4b4d-3ac0-56c5-8399-8e6f43e8ea90-attr-1-comment" class="er entityLabel">🗝️</text><rect height="22" width="37.39605712890625" y="46" x="0" class="er attributeBoxEven"/><text style="dominant-baseline: middle; font-size: 10.2px;" transform="translate(5,57)" y="0" x="0" id="text-entity-endereco-677e4b4d-3ac0-56c5-8399-8e6f43e8ea90-attr-2-type" class="er entityLabel">String</text><rect height="22" width="45.14068603515625" y="46" x="37.39605712890625" class="er attributeBoxEven"/><text style="dominant-baseline: middle; font-size: 10.2px;" transform="translate(42.39605712890625,57)" y="0" x="0" id="text-entity-endereco-677e4b4d-3ac0-56c5-8399-8e6f43e8ea90-attr-2-name" class="er entityLabel">rua</text><rect height="22" width="24.015625" y="46" x="82.5367431640625" class="er attributeBoxEven"/><text style="dominant-baseline: middle; font-size: 10.2px;" transform="translate(87.5367431640625,57)" y="0" x="0" id="text-entity-endereco-677e4b4d-3ac0-56c5-8399-8e6f43e8ea90-attr-2-comment" class="er entityLabel"/><rect height="22" width="37.39605712890625" y="68" x="0" class="er attributeBoxOdd"/><text style="dominant-baseline: middle; font-size: 10.2px;" transform="translate(5,79)" y="0" x="0" id="text-entity-endereco-677e4b4d-3ac0-56c5-8399-8e6f43e8ea90-attr-3-type" class="er entityLabel">String</text><rect height="22" width="45.14068603515625" y="68" x="37.39605712890625" class="er attributeBoxOdd"/><text style="dominant-baseline: middle; font-size: 10.2px;" transform="translate(42.39605712890625,79)" y="0" x="0" id="text-entity-endereco-677e4b4d-3ac0-56c5-8399-8e6f43e8ea90-attr-3-name" class="er entityLabel">bairro</text><rect height="22" width="24.015625" y="68" x="82.5367431640625" class="er attributeBoxOdd"/><text style="dominant-baseline: middle; font-size: 10.2px;" transform="translate(87.5367431640625,79)" y="0" x="0" id="text-entity-endereco-677e4b4d-3ac0-56c5-8399-8e6f43e8ea90-attr-3-comment" class="er entityLabel"/><rect height="22" width="37.39605712890625" y="90" x="0" class="er attributeBoxEven"/><text style="dominant-baseline: middle; font-size: 10.2px;" transform="translate(5,101)" y="0" x="0" id="text-entity-endereco-677e4b4d-3ac0-56c5-8399-8e6f43e8ea90-attr-4-type" class="er entityLabel">String</text><rect height="22" width="45.14068603515625" y="90" x="37.39605712890625" class="er attributeBoxEven"/><text style="dominant-baseline: middle; font-size: 10.2px;" transform="translate(42.39605712890625,101)" y="0" x="0" id="text-entity-endereco-677e4b4d-3ac0-56c5-8399-8e6f43e8ea90-attr-4-name" class="er entityLabel">cidade</text><rect height="22" width="24.015625" y="90" x="82.5367431640625" class="er attributeBoxEven"/><text style="dominant-baseline: middle; font-size: 10.2px;" transform="translate(87.5367431640625,101)" y="0" x="0" id="text-entity-endereco-677e4b4d-3ac0-56c5-8399-8e6f43e8ea90-attr-4-comment" class="er entityLabel"/><rect height="22" width="37.39605712890625" y="112" x="0" class="er attributeBoxOdd"/><text style="dominant-baseline: middle; font-size: 10.2px;" transform="translate(5,123)" y="0" x="0" id="text-entity-endereco-677e4b4d-3ac0-56c5-8399-8e6f43e8ea90-attr-5-type" class="er entityLabel">Int</text><rect height="22" width="45.14068603515625" y="112" x="37.39605712890625" class="er attributeBoxOdd"/><text style="dominant-baseline: middle; font-size: 10.2px;" transform="translate(42.39605712890625,123)" y="0" x="0" id="text-entity-endereco-677e4b4d-3ac0-56c5-8399-8e6f43e8ea90-attr-5-name" class="er entityLabel">numero</text><rect height="22" width="24.015625" y="112" x="82.5367431640625" class="er attributeBoxOdd"/><text style="dominant-baseline: middle; font-size: 10.2px;" transform="translate(87.5367431640625,123)" y="0" x="0" id="text-entity-endereco-677e4b4d-3ac0-56c5-8399-8e6f43e8ea90-attr-5-comment" class="er entityLabel"/><rect height="22" width="37.39605712890625" y="134" x="0" class="er attributeBoxEven"/><text style="dominant-baseline: middle; font-size: 10.2px;" transform="translate(5,145)" y="0" x="0" id="text-entity-endereco-677e4b4d-3ac0-56c5-8399-8e6f43e8ea90-attr-6-type" class="er entityLabel">String</text><rect height="22" width="45.14068603515625" y="134" x="37.39605712890625" class="er attributeBoxEven"/><text style="dominant-baseline: middle; font-size: 10.2px;" transform="translate(42.39605712890625,145)" y="0" x="0" id="text-entity-endereco-677e4b4d-3ac0-56c5-8399-8e6f43e8ea90-attr-6-name" class="er entityLabel">cep</text><rect height="22" width="24.015625" y="134" x="82.5367431640625" class="er attributeBoxEven"/><text style="dominant-baseline: middle; font-size: 10.2px;" transform="translate(87.5367431640625,145)" y="0" x="0" id="text-entity-endereco-677e4b4d-3ac0-56c5-8399-8e6f43e8ea90-attr-6-comment" class="er entityLabel"/></g><g transform="translate(1262.2028503417969,865 )" id="entity-compradorimovel-6b4994ff-d0e3-5d08-9489-eb42d04b2d7c"><rect height="46" width="130.322265625" y="0" x="0" class="er entityBox"/><text style="dominant-baseline: middle; text-anchor: middle; font-size: 12px;" transform="translate(65.1611328125,12)" y="0" x="0" id="text-entity-compradorimovel-6b4994ff-d0e3-5d08-9489-eb42d04b2d7c" class="er entityLabel">comprador_imovel</text><rect height="22" width="54.06339009602864" y="24" x="0" class="er attributeBoxOdd"/><text style="dominant-baseline: middle; font-size: 10.2px;" transform="translate(5,35)" y="0" x="0" id="text-entity-compradorimovel-6b4994ff-d0e3-5d08-9489-eb42d04b2d7c-attr-1-type" class="er entityLabel">String</text><rect height="22" width="35.575917561848954" y="24" x="54.06339009602864" class="er attributeBoxOdd"/><text style="dominant-baseline: middle; font-size: 10.2px;" transform="translate(59.06339009602864,35)" y="0" x="0" id="text-entity-compradorimovel-6b4994ff-d0e3-5d08-9489-eb42d04b2d7c-attr-1-name" class="er entityLabel">id</text><rect height="22" width="40.68295796712239" y="24" x="89.6393076578776" class="er attributeBoxOdd"/><text style="dominant-baseline: middle; font-size: 10.2px;" transform="translate(94.6393076578776,35)" y="0" x="0" id="text-entity-compradorimovel-6b4994ff-d0e3-5d08-9489-eb42d04b2d7c-attr-1-comment" class="er entityLabel">🗝️</text></g><g transform="translate(766.5891723632812,320 )" id="entity-imovelusuarios-e64e3bcf-89a5-5f82-b01c-aee168ead88f"><rect height="46" width="115.876953125" y="0" x="0" class="er entityBox"/><text style="dominant-baseline: middle; text-anchor: middle; font-size: 12px;" transform="translate(57.9384765625,12)" y="0" x="0" id="text-entity-imovelusuarios-e64e3bcf-89a5-5f82-b01c-aee168ead88f" class="er entityLabel">imovel_usuarios</text><rect height="22" width="49.24828592936198" y="24" x="0" class="er attributeBoxOdd"/><text style="dominant-baseline: middle; font-size: 10.2px;" transform="translate(5,35)" y="0" x="0" id="text-entity-imovelusuarios-e64e3bcf-89a5-5f82-b01c-aee168ead88f-attr-1-type" class="er entityLabel">String</text><rect height="22" width="30.76081339518229" y="24" x="49.24828592936198" class="er attributeBoxOdd"/><text style="dominant-baseline: middle; font-size: 10.2px;" transform="translate(54.24828592936198,35)" y="0" x="0" id="text-entity-imovelusuarios-e64e3bcf-89a5-5f82-b01c-aee168ead88f-attr-1-name" class="er entityLabel">id</text><rect height="22" width="35.86785380045573" y="24" x="80.00909932454427" class="er attributeBoxOdd"/><text style="dominant-baseline: middle; font-size: 10.2px;" transform="translate(85.00909932454427,35)" y="0" x="0" id="text-entity-imovelusuarios-e64e3bcf-89a5-5f82-b01c-aee168ead88f-attr-1-comment" class="er entityLabel">🗝️</text></g><g transform="translate(721.0210342407227,488 )" id="entity-Imovel-3e943d80-be62-5bdd-bb06-497fa3b1fb1d"><rect height="222" width="207.0132293701172" y="0" x="0" class="er entityBox"/><text style="dominant-baseline: middle; text-anchor: middle; font-size: 12px;" transform="translate(103.5066146850586,12)" y="0" x="0" id="text-entity-Imovel-3e943d80-be62-5bdd-bb06-497fa3b1fb1d" class="er entityLabel">Imovel</text><rect height="22" width="71.12266540527344" y="24" x="0" class="er attributeBoxOdd"/><text style="dominant-baseline: middle; font-size: 10.2px;" transform="translate(5,35)" y="0" x="0" id="text-entity-Imovel-3e943d80-be62-5bdd-bb06-497fa3b1fb1d-attr-1-type" class="er entityLabel">String</text><rect height="22" width="111.87493896484375" y="24" x="71.12266540527344" class="er attributeBoxOdd"/><text style="dominant-baseline: middle; font-size: 10.2px;" transform="translate(76.12266540527344,35)" y="0" x="0" id="text-entity-Imovel-3e943d80-be62-5bdd-bb06-497fa3b1fb1d-attr-1-name" class="er entityLabel">id</text><rect height="22" width="24.015625" y="24" x="182.9976043701172" class="er attributeBoxOdd"/><text style="dominant-baseline: middle; font-size: 10.2px;" transform="translate(187.9976043701172,35)" y="0" x="0" id="text-entity-Imovel-3e943d80-be62-5bdd-bb06-497fa3b1fb1d-attr-1-comment" class="er entityLabel">🗝️</text><rect height="22" width="71.12266540527344" y="46" x="0" class="er attributeBoxEven"/><text style="dominant-baseline: middle; font-size: 10.2px;" transform="translate(5,57)" y="0" x="0" id="text-entity-Imovel-3e943d80-be62-5bdd-bb06-497fa3b1fb1d-attr-2-type" class="er entityLabel">TipoContrato</text><rect height="22" width="111.87493896484375" y="46" x="71.12266540527344" class="er attributeBoxEven"/><text style="dominant-baseline: middle; font-size: 10.2px;" transform="translate(76.12266540527344,57)" y="0" x="0" id="text-entity-Imovel-3e943d80-be62-5bdd-bb06-497fa3b1fb1d-attr-2-name" class="er entityLabel">tipo_contrato</text><rect height="22" width="24.015625" y="46" x="182.9976043701172" class="er attributeBoxEven"/><text style="dominant-baseline: middle; font-size: 10.2px;" transform="translate(187.9976043701172,57)" y="0" x="0" id="text-entity-Imovel-3e943d80-be62-5bdd-bb06-497fa3b1fb1d-attr-2-comment" class="er entityLabel"/><rect height="22" width="71.12266540527344" y="68" x="0" class="er attributeBoxOdd"/><text style="dominant-baseline: middle; font-size: 10.2px;" transform="translate(5,79)" y="0" x="0" id="text-entity-Imovel-3e943d80-be62-5bdd-bb06-497fa3b1fb1d-attr-3-type" class="er entityLabel">Int</text><rect height="22" width="111.87493896484375" y="68" x="71.12266540527344" class="er attributeBoxOdd"/><text style="dominant-baseline: middle; font-size: 10.2px;" transform="translate(76.12266540527344,79)" y="0" x="0" id="text-entity-Imovel-3e943d80-be62-5bdd-bb06-497fa3b1fb1d-attr-3-name" class="er entityLabel">quantidade_quartos</text><rect height="22" width="24.015625" y="68" x="182.9976043701172" class="er attributeBoxOdd"/><text style="dominant-baseline: middle; font-size: 10.2px;" transform="translate(187.9976043701172,79)" y="0" x="0" id="text-entity-Imovel-3e943d80-be62-5bdd-bb06-497fa3b1fb1d-attr-3-comment" class="er entityLabel"/><rect height="22" width="71.12266540527344" y="90" x="0" class="er attributeBoxEven"/><text style="dominant-baseline: middle; font-size: 10.2px;" transform="translate(5,101)" y="0" x="0" id="text-entity-Imovel-3e943d80-be62-5bdd-bb06-497fa3b1fb1d-attr-4-type" class="er entityLabel">Int</text><rect height="22" width="111.87493896484375" y="90" x="71.12266540527344" class="er attributeBoxEven"/><text style="dominant-baseline: middle; font-size: 10.2px;" transform="translate(76.12266540527344,101)" y="0" x="0" id="text-entity-Imovel-3e943d80-be62-5bdd-bb06-497fa3b1fb1d-attr-4-name" class="er entityLabel">quantidade_banheiros</text><rect height="22" width="24.015625" y="90" x="182.9976043701172" class="er attributeBoxEven"/><text style="dominant-baseline: middle; font-size: 10.2px;" transform="translate(187.9976043701172,101)" y="0" x="0" id="text-entity-Imovel-3e943d80-be62-5bdd-bb06-497fa3b1fb1d-attr-4-comment" class="er entityLabel">❓</text><rect height="22" width="71.12266540527344" y="112" x="0" class="er attributeBoxOdd"/><text style="dominant-baseline: middle; font-size: 10.2px;" transform="translate(5,123)" y="0" x="0" id="text-entity-Imovel-3e943d80-be62-5bdd-bb06-497fa3b1fb1d-attr-5-type" class="er entityLabel">Float</text><rect height="22" width="111.87493896484375" y="112" x="71.12266540527344" class="er attributeBoxOdd"/><text style="dominant-baseline: middle; font-size: 10.2px;" transform="translate(76.12266540527344,123)" y="0" x="0" id="text-entity-Imovel-3e943d80-be62-5bdd-bb06-497fa3b1fb1d-attr-5-name" class="er entityLabel">area</text><rect height="22" width="24.015625" y="112" x="182.9976043701172" class="er attributeBoxOdd"/><text style="dominant-baseline: middle; font-size: 10.2px;" transform="translate(187.9976043701172,123)" y="0" x="0" id="text-entity-Imovel-3e943d80-be62-5bdd-bb06-497fa3b1fb1d-attr-5-comment" class="er entityLabel"/><rect height="22" width="71.12266540527344" y="134" x="0" class="er attributeBoxEven"/><text style="dominant-baseline: middle; font-size: 10.2px;" transform="translate(5,145)" y="0" x="0" id="text-entity-Imovel-3e943d80-be62-5bdd-bb06-497fa3b1fb1d-attr-6-type" class="er entityLabel">Int</text><rect height="22" width="111.87493896484375" y="134" x="71.12266540527344" class="er attributeBoxEven"/><text style="dominant-baseline: middle; font-size: 10.2px;" transform="translate(76.12266540527344,145)" y="0" x="0" id="text-entity-Imovel-3e943d80-be62-5bdd-bb06-497fa3b1fb1d-attr-6-name" class="er entityLabel">preco</text><rect height="22" width="24.015625" y="134" x="182.9976043701172" class="er attributeBoxEven"/><text style="dominant-baseline: middle; font-size: 10.2px;" transform="translate(187.9976043701172,145)" y="0" x="0" id="text-entity-Imovel-3e943d80-be62-5bdd-bb06-497fa3b1fb1d-attr-6-comment" class="er entityLabel"/><rect height="22" width="71.12266540527344" y="156" x="0" class="er attributeBoxOdd"/><text style="dominant-baseline: middle; font-size: 10.2px;" transform="translate(5,167)" y="0" x="0" id="text-entity-Imovel-3e943d80-be62-5bdd-bb06-497fa3b1fb1d-attr-7-type" class="er entityLabel">StatusImovel</text><rect height="22" width="111.87493896484375" y="156" x="71.12266540527344" class="er attributeBoxOdd"/><text style="dominant-baseline: middle; font-size: 10.2px;" transform="translate(76.12266540527344,167)" y="0" x="0" id="text-entity-Imovel-3e943d80-be62-5bdd-bb06-497fa3b1fb1d-attr-7-name" class="er entityLabel">status</text><rect height="22" width="24.015625" y="156" x="182.9976043701172" class="er attributeBoxOdd"/><text style="dominant-baseline: middle; font-size: 10.2px;" transform="translate(187.9976043701172,167)" y="0" x="0" id="text-entity-Imovel-3e943d80-be62-5bdd-bb06-497fa3b1fb1d-attr-7-comment" class="er entityLabel"/><rect height="22" width="71.12266540527344" y="178" x="0" class="er attributeBoxEven"/><text style="dominant-baseline: middle; font-size: 10.2px;" transform="translate(5,189)" y="0" x="0" id="text-entity-Imovel-3e943d80-be62-5bdd-bb06-497fa3b1fb1d-attr-8-type" class="er entityLabel">TipoImovel</text><rect height="22" width="111.87493896484375" y="178" x="71.12266540527344" class="er attributeBoxEven"/><text style="dominant-baseline: middle; font-size: 10.2px;" transform="translate(76.12266540527344,189)" y="0" x="0" id="text-entity-Imovel-3e943d80-be62-5bdd-bb06-497fa3b1fb1d-attr-8-name" class="er entityLabel">tipoImovel</text><rect height="22" width="24.015625" y="178" x="182.9976043701172" class="er attributeBoxEven"/><text style="dominant-baseline: middle; font-size: 10.2px;" transform="translate(187.9976043701172,189)" y="0" x="0" id="text-entity-Imovel-3e943d80-be62-5bdd-bb06-497fa3b1fb1d-attr-8-comment" class="er entityLabel">❓</text><rect height="22" width="71.12266540527344" y="200" x="0" class="er attributeBoxOdd"/><text style="dominant-baseline: middle; font-size: 10.2px;" transform="translate(5,211)" y="0" x="0" id="text-entity-Imovel-3e943d80-be62-5bdd-bb06-497fa3b1fb1d-attr-9-type" class="er entityLabel">DateTime</text><rect height="22" width="111.87493896484375" y="200" x="71.12266540527344" class="er attributeBoxOdd"/><text style="dominant-baseline: middle; font-size: 10.2px;" transform="translate(76.12266540527344,211)" y="0" x="0" id="text-entity-Imovel-3e943d80-be62-5bdd-bb06-497fa3b1fb1d-attr-9-name" class="er entityLabel">createdAt</text><rect height="22" width="24.015625" y="200" x="182.9976043701172" class="er attributeBoxOdd"/><text style="dominant-baseline: middle; font-size: 10.2px;" transform="translate(187.9976043701172,211)" y="0" x="0" id="text-entity-Imovel-3e943d80-be62-5bdd-bb06-497fa3b1fb1d-attr-9-comment" class="er entityLabel"/></g><g transform="translate(924.9674987792969,854 )" id="entity-imageimovel-d9c395dc-594e-5bb4-9f0d-337f287e1f6b"><rect height="68" width="104.79296875" y="0" x="0" class="er entityBox"/><text style="dominant-baseline: middle; text-anchor: middle; font-size: 12px;" transform="translate(52.396484375,12)" y="0" x="0" id="text-entity-imageimovel-d9c395dc-594e-5bb4-9f0d-337f287e1f6b" class="er entityLabel">image_imovel</text><rect height="22" width="41.494547526041664" y="24" x="0" class="er attributeBoxOdd"/><text style="dominant-baseline: middle; font-size: 10.2px;" transform="translate(5,35)" y="0" x="0" id="text-entity-imageimovel-d9c395dc-594e-5bb4-9f0d-337f287e1f6b-attr-1-type" class="er entityLabel">String</text><rect height="22" width="35.184305826822914" y="24" x="41.494547526041664" class="er attributeBoxOdd"/><text style="dominant-baseline: middle; font-size: 10.2px;" transform="translate(46.494547526041664,35)" y="0" x="0" id="text-entity-imageimovel-d9c395dc-594e-5bb4-9f0d-337f287e1f6b-attr-1-name" class="er entityLabel">id</text><rect height="22" width="28.114115397135418" y="24" x="76.67885335286458" class="er attributeBoxOdd"/><text style="dominant-baseline: middle; font-size: 10.2px;" transform="translate(81.67885335286458,35)" y="0" x="0" id="text-entity-imageimovel-d9c395dc-594e-5bb4-9f0d-337f287e1f6b-attr-1-comment" class="er entityLabel">🗝️</text><rect height="22" width="41.494547526041664" y="46" x="0" class="er attributeBoxEven"/><text style="dominant-baseline: middle; font-size: 10.2px;" transform="translate(5,57)" y="0" x="0" id="text-entity-imageimovel-d9c395dc-594e-5bb4-9f0d-337f287e1f6b-attr-2-type" class="er entityLabel">String</text><rect height="22" width="35.184305826822914" y="46" x="41.494547526041664" class="er attributeBoxEven"/><text style="dominant-baseline: middle; font-size: 10.2px;" transform="translate(46.494547526041664,57)" y="0" x="0" id="text-entity-imageimovel-d9c395dc-594e-5bb4-9f0d-337f287e1f6b-attr-2-name" class="er entityLabel">path</text><rect height="22" width="28.114115397135418" y="46" x="76.67885335286458" class="er attributeBoxEven"/><text style="dominant-baseline: middle; font-size: 10.2px;" transform="translate(81.67885335286458,57)" y="0" x="0" id="text-entity-imageimovel-d9c395dc-594e-5bb4-9f0d-337f287e1f6b-attr-2-comment" class="er entityLabel"/></g><rect height="14" width="63.77734375" y="190.60475158691406" x="710.3276977539062" class="er relationshipLabelBox"/><text style="text-anchor: middle; dominant-baseline: middle; font-size: 12px;" y="197.60475158691406" x="742.2163696289062" id="rel1" class="er relationshipLabel">enum:perfil</text><rect height="14" width="76.287109375" y="271.5472717285156" x="956.906494140625" class="er relationshipLabelBox"/><text style="text-anchor: middle; dominant-baseline: middle; font-size: 12px;" y="278.5472717285156" x="995.050048828125" id="rel2" class="er relationshipLabel">ImovelUsuario</text><rect height="14" width="95.18359375" y="375.30487060546875" x="1388.5511474609375" class="er relationshipLabelBox"/><text style="text-anchor: middle; dominant-baseline: middle; font-size: 12px;" y="382.30487060546875" x="1436.1429443359375" id="rel3" class="er relationshipLabel">CompradorImovel</text><rect height="14" width="36.162109375" y="750.9686279296875" x="699.7075805664062" class="er relationshipLabelBox"/><text style="text-anchor: middle; dominant-baseline: middle; font-size: 12px;" y="757.9686279296875" x="717.7886352539062" id="rel4" class="er relationshipLabel">Imovel</text><rect height="14" width="39.361328125" y="461.06988525390625" x="1216.4622802734375" class="er relationshipLabelBox"/><text style="text-anchor: middle; dominant-baseline: middle; font-size: 12px;" y="468.06988525390625" x="1236.1429443359375" id="rel5" class="er relationshipLabel">usuario</text><rect height="14" width="36.244140625" y="744.998779296875" x="1096.3414306640625" class="er relationshipLabelBox"/><text style="text-anchor: middle; dominant-baseline: middle; font-size: 12px;" y="751.998779296875" x="1114.4635009765625" id="rel6" class="er relationshipLabel">imovel</text><rect height="14" width="39.361328125" y="208.938232421875" x="791.545166015625" class="er relationshipLabelBox"/><text style="text-anchor: middle; dominant-baseline: middle; font-size: 12px;" y="215.938232421875" x="811.225830078125" id="rel7" class="er relationshipLabel">usuario</text><rect height="14" width="36.244140625" y="423.8050842285156" x="1000.646240234375" class="er relationshipLabelBox"/><text style="text-anchor: middle; dominant-baseline: middle; font-size: 12px;" y="430.8050842285156" x="1018.768310546875" id="rel8" class="er relationshipLabel">imovel</text><rect height="14" width="108.044921875" y="691.9639282226562" x="316.8432922363281" class="er relationshipLabelBox"/><text style="text-anchor: middle; dominant-baseline: middle; font-size: 12px;" y="698.9639282226562" x="370.8657531738281" id="rel9" class="er relationshipLabel">enum:tipo_contrato</text><rect height="14" width="50.482421875" y="754.3421020507812" x="795.5619506835938" class="er relationshipLabelBox"/><text style="text-anchor: middle; dominant-baseline: middle; font-size: 12px;" y="761.3421020507812" x="820.8031616210938" id="rel10" class="er relationshipLabel">endereco</text><rect height="14" width="66.259765625" y="697.1300048828125" x="454.38385009765625" class="er relationshipLabelBox"/><text style="text-anchor: middle; dominant-baseline: middle; font-size: 12px;" y="704.1300048828125" x="487.51373291015625" id="rel11" class="er relationshipLabel">enum:status</text><rect height="14" width="91.4921875" y="725.9457397460938" x="555.3424072265625" class="er relationshipLabelBox"/><text style="text-anchor: middle; dominant-baseline: middle; font-size: 12px;" y="732.9457397460938" x="601.0885009765625" id="rel12" class="er relationshipLabel">enum:tipoImovel</text><rect height="14" width="76.287109375" y="417.57525634765625" x="746.275634765625" class="er relationshipLabelBox"/><text style="text-anchor: middle; dominant-baseline: middle; font-size: 12px;" y="424.57525634765625" x="784.419189453125" id="rel13" class="er relationshipLabel">ImovelUsuario</text><rect height="14" width="95.18359375" y="702.8161010742188" x="1116.44580078125" class="er relationshipLabelBox"/><text style="text-anchor: middle; dominant-baseline: middle; font-size: 12px;" y="709.8161010742188" x="1164.03759765625" id="rel14" class="er relationshipLabel">CompradorImovel</text><rect height="14" width="68.3359375" y="744.49658203125" x="971.855224609375" class="er relationshipLabelBox"/><text style="text-anchor: middle; dominant-baseline: middle; font-size: 12px;" y="751.49658203125" x="1006.023193359375" id="rel15" class="er relationshipLabel">ImageImovel</text><rect height="14" width="36.244140625" y="773.26318359375" x="913.7842407226562" class="er relationshipLabelBox"/><text style="text-anchor: middle; dominant-baseline: middle; font-size: 12px;" y="780.26318359375" x="931.9063110351562" id="rel16" class="er relationshipLabel">imovel</text></svg>